<?xml version="1.0" encoding="UTF-8"?><svg id="a" xmlns="http://www.w3.org/2000/svg" viewBox="0 0 112.2 70.52"><g style="opacity:.5;"><path d="M55.61,0c-10.91,0-19.75,8.84-19.75,19.75s8.84,19.75,19.75,19.75,19.75-8.84,19.75-19.75S66.52,0,55.61,0ZM55.61,36.22c-9.09,0-16.46-7.37-16.46-16.46S46.52,3.29,55.61,3.29s16.46,7.37,16.46,16.46-7.37,16.46-16.46,16.46Z" style="fill:#7f7f7f;"/><path d="M66.21,19.44c-1.73-2.41.06-5.78-1.51-8.27-4.74-5.84-10.95-1.58-15.51,2.1.51.95,2.5.18,3.54.35,2.25,1.73,1.13,6.1-.64,7.08-1.06.55-2.15-.41-2.49.8.73.82,1.56-.15,2.21.98-1.28,1.9,2.19,2.94,1.8,4.79-1.53,1.23-1.26,4.89-.34,6.28,1.54,1.09,2.06-1.08,3.84-.3,0-.08-.1-1.45-.16-2.4-.95.07-.12-1.35-1.15-1.21-2.04-.06-.02-1.15,1.02-.71.01-1.41-.39-1.66.17-2.31l.34.08c1.09,1.9.72,4.44.65,6.54,1.91.24,1.99-2.37,1.9-3.53-3.52-7.35,10.27-4.08,6.33-10.28ZM56.28,24.62c-1.33.82-2.21-.3-3.19-.92-.23-1.07.67-3.29,1.97-2.39.22.49.72.89,1.28.69.32.99.6,1.89-.06,2.62ZM63.54,18.16c-2.91,5.31-9.63.88-6.69-4.43,3.53-3.96,7.64-.22,6.69,4.43Z" style="fill:#7f7f7f;"/><path d="M51.81,27.89c.03.63-1.85,0-1.09-.24,1.06.21.34-.63.82-1.06.44-.06.21.95.27,1.29Z" style="fill:#7f7f7f;"/><path d="M50.04,42.84c-.04-.34.76-.31,2.05-.31,2.42,0,5.48,0,7.96,0,2.55-.08-.21,1.86-1.3,2.22-1.57.48-3.74.32-5.42.23-1.24-.12-2.74-1-3.28-2.06l-.02-.09Z" style="fill:#7f7f7f;"/><path d="M70.85,37.87c2.5-2,6.39-4.79,8.75-7.23.71-1.23-.5-2.64-1.7-1.39-2.07,2.41-5.34,6.34-7.06,8.6h.01Z" style="fill:#7f7f7f;"/><path d="M39.61,36.8c-.28-.76-2.23-2.91-3.03-4.03-1.59-1.92-2.96-4.01-3.27-3.83-.44,1.06-.17,2.72-.15,3.86.11,1.29,1.04,1.64,2.78,2.45.98.4,2.82,1.45,3.64,1.57l.03-.03Z" style="fill:#7f7f7f;"/><path d="M47.51,10.04c.29.29-.76,1.25-1.68,2.36-1.76,1.95-2.55,4.48-3.11,6.96-.33,1.14-1.26-.95-.9-3.12.39-2.76,2.63-6.25,5.62-6.25l.07.05Z" style="fill:#7f7f7f;"/><path d="M49.69,7.8c-.61-1.64,2.59-3.09,3.33-1.46.41,1.54-2.24,2.72-3.23,1.64l-.11-.17Z" style="fill:#7f7f7f;"/><path d="M19,50.82v7.27h-2.29v-7.27h2.29ZM20.95,53.43v1.6h-2.03v-1.6h2.03ZM23.12,50.82v7.27h-2.29v-7.27h2.29Z" style="fill:#7f7f7f;"/><path d="M26.97,52.67c.99,0,1.69.16,2.11.47.41.32.62.78.63,1.4,0,.49-.14.85-.44,1.06-.3.22-.83.33-1.61.33h-2.83v-1.04h2.21c.24,0,.39-.02.45-.07.06-.05.09-.16.09-.33s-.04-.28-.13-.33c-.08-.05-.23-.07-.43-.07-.2,0-.36.01-.46.06s-.18.16-.22.32-.06.42-.06.77c0,.32.02.58.07.76.05.18.14.31.27.39.13.08.33.12.59.12.21,0,.51,0,.89-.02s.8-.05,1.25-.09l.2,1.33c-.25.13-.51.22-.79.29-.28.07-.57.12-.87.15-.3.03-.61.04-.92.04-.73,0-1.32-.1-1.76-.3-.44-.2-.76-.51-.95-.91-.19-.4-.29-.9-.29-1.5,0-.7.1-1.25.3-1.66.2-.41.51-.71.95-.89s1.02-.27,1.74-.27Z" style="fill:#7f7f7f;"/><path d="M36.11,52.82v5.27l-1.97.02v-2.07c0-.16,0-.32.02-.48s.04-.33.06-.51h-.05c-.05.15-.12.32-.2.5-.08.18-.17.33-.24.45l-1.35,2.09h-1.96v-5.27h1.96v2.2c0,.14,0,.28-.02.41-.01.13-.04.28-.06.44h.05c.05-.16.11-.3.18-.43.07-.13.15-.26.23-.39l1.39-2.23h1.96Z" style="fill:#7f7f7f;"/><path d="M38.98,52.67c.66,0,1.2.03,1.61.09.41.06.71.2.91.41.19.21.29.53.29.95s-.09.71-.27.9-.48.29-.88.33v.05c.49.03.84.16,1.05.38.21.23.32.56.32.98s-.1.77-.3.97c-.2.21-.49.34-.88.4s-.86.09-1.42.09c-.44,0-.86-.02-1.29-.05-.42-.03-.86-.1-1.32-.21l.14-1.41c.46.05.88.08,1.27.1s.74.03,1.03.03c.2,0,.34-.02.41-.05.07-.03.1-.13.1-.29,0-.08-.01-.14-.04-.18-.02-.04-.07-.06-.15-.07s-.18-.02-.33-.03l-1.77-.04v-1.23l1.76-.04c.11,0,.2-.02.26-.03s.1-.03.12-.07.03-.09.03-.16c0-.09-.01-.15-.04-.19-.02-.04-.07-.06-.14-.07-.07-.01-.18-.02-.32-.02-.37,0-.73.01-1.08.04-.36.02-.7.05-1.01.09l-.14-1.41c.39-.12.77-.2,1.15-.23s.69-.05.93-.05Z" style="fill:#7f7f7f;"/><path d="M45.62,52.76c.6,0,1.08.04,1.43.12.35.08.6.22.76.42.15.2.23.49.23.86s-.09.66-.27.85c-.18.19-.48.31-.9.34v.05c.51.03.86.16,1.07.4.21.24.31.57.31.98,0,.37-.08.65-.25.85-.17.2-.42.35-.76.43s-.78.12-1.31.12c-.48,0-.9,0-1.26,0-.37,0-.7-.01-1.02-.02-.31-.01-.63-.02-.94-.04l.15-1.34c.17,0,.49.01.97.02.48,0,1.05,0,1.71,0,.13,0,.24-.01.31-.04s.13-.07.16-.14c.03-.07.05-.16.05-.29,0-.18-.04-.29-.11-.35-.07-.06-.21-.08-.42-.08h-2.69v-1.06h2.69c.13,0,.22-.01.29-.03.07-.02.11-.06.14-.12.02-.06.04-.13.04-.22,0-.1-.01-.17-.04-.23-.03-.05-.08-.09-.15-.11-.07-.02-.17-.03-.29-.03-.41,0-.76,0-1.06,0-.3,0-.58,0-.83,0s-.51.01-.76.03l-.15-1.31c.29-.02.57-.04.85-.04s.59-.01.92-.02c.33,0,.71,0,1.13,0ZM44.79,52.82v5.3h-2.08v-5.3h2.08Z" style="fill:#7f7f7f;"/><path d="M51.73,52.67c.99,0,1.69.16,2.11.47.41.32.62.78.63,1.4,0,.49-.14.85-.44,1.06-.3.22-.83.33-1.61.33h-2.83v-1.04h2.21c.24,0,.39-.02.45-.07.06-.05.09-.16.09-.33s-.04-.28-.13-.33c-.08-.05-.23-.07-.43-.07-.2,0-.36.01-.46.06s-.18.16-.22.32-.06.42-.06.77c0,.32.02.58.07.76.05.18.14.31.27.39.13.08.33.12.59.12.21,0,.51,0,.89-.02s.8-.05,1.25-.09l.2,1.33c-.25.13-.51.22-.79.29-.28.07-.57.12-.87.15-.3.03-.61.04-.92.04-.73,0-1.32-.1-1.76-.3-.44-.2-.76-.51-.95-.91-.19-.4-.29-.9-.29-1.5,0-.7.1-1.25.3-1.66.2-.41.51-.71.95-.89s1.02-.27,1.74-.27Z" style="fill:#7f7f7f;"/><path d="M61.6,56.66v1.43h-6.86v-1.43h6.86ZM56.36,58.04l-.15,1.49h-1.46v-1.49h1.61ZM60.57,52.82v1.35h-2.24c-.24,0-.38.12-.42.37-.11.61-.22,1.13-.35,1.54-.13.42-.29.78-.46,1.1-.18.31-.4.62-.65.91h-1.65c.24-.46.43-.92.58-1.36.15-.44.28-.88.37-1.31.1-.43.18-.87.25-1.31.07-.42.23-.74.47-.96.25-.22.6-.33,1.07-.33h3.02ZM60.7,52.82v5.27h-2.08v-5.27h2.08ZM61.6,58.04v1.49h-1.46l-.15-1.49h1.61Z" style="fill:#7f7f7f;"/><path d="M66.7,54.85v1.06h-2.19c-.13,0-.23.03-.3.09-.07.06-.1.14-.1.24v.17c0,.09.04.17.11.23.07.06.18.09.33.09.17,0,.34-.04.53-.12s.36-.18.53-.31c.17-.13.31-.26.43-.39v.67c-.05.12-.13.27-.23.45s-.25.37-.43.55-.4.33-.66.46c-.26.12-.58.18-.94.18-.32,0-.62-.06-.9-.17-.28-.11-.5-.28-.66-.5s-.25-.5-.25-.83v-.53c0-.42.16-.75.47-1s.74-.36,1.27-.36h3ZM65.25,52.67c.5,0,.92.06,1.26.19.34.13.6.35.78.66.18.31.27.74.27,1.29v3.27h-1.76l-.31-1.13-.15-.21v-1.94c0-.18-.05-.32-.14-.4s-.25-.13-.48-.13c-.27,0-.61,0-1.01.01-.4,0-.82.02-1.27.04l-.2-1.4c.27-.05.58-.09.95-.13.37-.04.74-.07,1.1-.09s.68-.04.95-.04Z" style="fill:#7f7f7f;"/><path d="M70.65,52.82v5.27h-2.18v-5.27h2.18ZM72.04,54.61v1.42h-1.46v-1.42h1.46ZM74.12,52.82v5.27h-2.17v-5.27h2.17Z" style="fill:#7f7f7f;"/><path d="M77.27,52.82v5.27h-2.18v-5.27h2.18ZM78.66,54.61v1.42h-1.46v-1.42h1.46ZM80.73,52.82v5.27h-2.17v-5.27h2.17Z" style="fill:#7f7f7f;"/><path d="M83.83,52.82v5.27h-2.13v-5.27h2.13ZM84.2,54.48c.69,0,1.23.05,1.63.16.4.11.68.29.85.55.17.26.25.64.25,1.12s-.08.85-.25,1.12c-.17.27-.42.46-.76.56-.34.11-.79.16-1.33.16-.42,0-.79,0-1.11,0-.32,0-.61,0-.88-.02s-.55-.02-.83-.04l.13-1.38c.15,0,.43.01.85.02.42,0,.9.01,1.46.01.15,0,.26-.01.33-.04.07-.02.12-.08.14-.15s.04-.19.04-.33c0-.22-.03-.37-.08-.43-.06-.06-.2-.09-.42-.09h-2.32v-1.22h2.32ZM89.6,52.82v5.27h-2.22v-5.27h2.22Z" style="fill:#7f7f7f;"/><path d="M96.26,52.82v5.27l-1.97.02v-2.07c0-.16,0-.32.02-.48s.04-.33.06-.51h-.05c-.05.15-.12.32-.2.5-.08.18-.17.33-.24.45l-1.35,2.09h-1.96v-5.27h1.96v2.2c0,.14,0,.28-.02.41-.01.13-.04.28-.06.44h.05c.05-.16.11-.3.18-.43.07-.13.15-.26.23-.39l1.39-2.23h1.96ZM93.97,50.48h1.34c.06.3.02.59-.12.87s-.35.51-.65.68c-.3.18-.67.27-1.1.27s-.79-.09-1.1-.27c-.3-.18-.52-.41-.66-.68s-.18-.57-.13-.87h1.34c-.04.32-.01.54.09.65.1.11.25.16.46.16s.35-.05.45-.16c.1-.11.13-.32.08-.65Z" style="fill:#7f7f7f;"/><path d="M39.69,60.72v1.15c0,.22-.03.45-.08.7s-.13.47-.24.66c.08.17.16.37.22.59.06.22.09.41.09.57v1.6h-2.2v-5.27h2.2ZM40.19,62.57v1.41h-1.02v-1.41h1.02ZM43.01,60.72c-.14.48-.25.87-.34,1.16s-.16.53-.23.7-.15.29-.24.36-.21.13-.36.17c-.15.04-.35.07-.61.11v.06c.25.04.46.08.62.11.16.03.29.08.4.16.11.08.2.21.29.38.09.18.18.43.28.76s.22.76.37,1.3h-2.3c-.12-.45-.22-.81-.29-1.07-.07-.27-.14-.47-.18-.61-.05-.14-.1-.23-.16-.27s-.12-.06-.2-.06h-.31l-.04-1.41c.17,0,.3-.01.4-.03.09-.02.17-.08.23-.19s.12-.28.18-.54c.06-.25.15-.61.25-1.08h2.23Z" style="fill:#7f7f7f;"/><path d="M46.42,60.58c.72,0,1.29.09,1.72.27s.74.47.93.88c.19.41.28.96.28,1.64s-.09,1.21-.28,1.61c-.19.4-.5.69-.93.87-.43.18-1.01.27-1.72.27s-1.29-.09-1.72-.27c-.43-.18-.74-.47-.94-.87-.19-.4-.29-.94-.29-1.61s.1-1.24.29-1.64c.19-.41.51-.7.94-.88.43-.18,1.01-.27,1.72-.27ZM46.42,62.07c-.17,0-.3.03-.39.1-.09.07-.15.19-.19.37-.04.18-.05.46-.05.82s.02.62.05.79c.03.18.1.3.19.36.09.06.22.1.39.1s.3-.03.39-.1c.09-.06.15-.18.18-.36.03-.18.05-.44.05-.79s-.02-.64-.05-.82c-.03-.18-.09-.31-.18-.37-.09-.07-.22-.1-.39-.1Z" style="fill:#7f7f7f;"/><path d="M52.73,60.58c.22,0,.46.01.72.03.26.02.52.06.78.12s.5.14.71.24l-.22,1.37h-1.6c-.22,0-.4.03-.53.08-.13.06-.22.16-.27.3-.05.14-.08.35-.08.63s.03.48.08.63c.05.15.14.25.27.31.13.06.31.08.53.08.12,0,.27,0,.45,0,.18,0,.38-.01.6-.02.22-.01.44-.03.65-.05l.2,1.38c-.31.16-.67.28-1.07.34s-.81.1-1.22.1c-.69,0-1.24-.09-1.65-.27-.41-.18-.71-.47-.89-.88s-.27-.95-.27-1.62.09-1.22.27-1.63c.18-.4.48-.7.9-.87s.97-.27,1.65-.27Z" style="fill:#7f7f7f;"/><path d="M62.58,60.72c.49,0,.73.25.75.75l.12,4.52h-2l-.12-3.67h-.12l-.43,2.22c-.04.22-.12.39-.26.51s-.33.17-.56.17h-.87c-.23,0-.42-.06-.56-.17-.14-.11-.23-.28-.27-.51l-.44-2.22h-.12l-.07,3.67h-2l.11-4.52c.01-.5.27-.75.76-.75h1.81c.23,0,.41.06.55.17.14.11.23.28.26.52l.31,1.64c.03.13.05.27.05.4s.01.26.02.41h.06c.01-.14.02-.28.03-.41,0-.13.02-.26.05-.4l.28-1.64c.06-.46.34-.68.82-.68h1.85Z" style="fill:#7f7f7f;"/><path d="M67.08,60.58c.72,0,1.29.09,1.72.27s.74.47.93.88.28.96.28,1.64-.09,1.21-.28,1.61-.5.69-.93.87c-.43.18-1.01.27-1.72.27s-1.29-.09-1.72-.27c-.43-.18-.74-.47-.94-.87s-.29-.94-.29-1.61.1-1.24.29-1.64.51-.7.94-.88c.43-.18,1.01-.27,1.72-.27ZM67.08,62.07c-.17,0-.3.03-.39.1-.09.07-.15.19-.19.37s-.05.46-.05.82.02.62.05.79c.04.18.1.3.19.36.09.06.22.1.39.1s.3-.03.39-.1c.09-.06.15-.18.18-.36.03-.18.05-.44.05-.79s-.02-.64-.05-.82-.09-.31-.18-.37c-.09-.07-.22-.1-.39-.1Z" style="fill:#7f7f7f;"/><path d="M73.39,60.58c.22,0,.46.01.72.03.26.02.52.06.78.12.26.06.5.14.71.24l-.22,1.37h-1.6c-.22,0-.4.03-.53.08-.13.06-.22.16-.27.3-.05.14-.08.35-.08.63s.03.48.08.63.14.25.27.31c.13.06.31.08.53.08.12,0,.27,0,.45,0,.18,0,.38-.01.59-.02.22-.01.44-.03.65-.05l.2,1.38c-.31.16-.67.28-1.07.34-.41.07-.82.1-1.22.1-.69,0-1.24-.09-1.65-.27-.41-.18-.71-.47-.88-.88-.18-.41-.27-.95-.27-1.62s.09-1.22.27-1.63c.18-.4.48-.7.9-.87s.97-.27,1.65-.27Z" style="fill:#7f7f7f;"/><polygon points="102.72 54.6 88.15 69.17 24.69 69.17 10.06 54.54 8.22 54.54 24.19 70.52 88.73 70.52 104.64 54.61 102.72 54.6" style="fill:#7f7f7f;"/></g></svg>