<?xml version="1.0" encoding="UTF-8"?><svg id="a" xmlns="http://www.w3.org/2000/svg" viewBox="0 0 79.06 109.18"><path d="M73.97,41.88c.04-.57.05-1.14.05-1.71,0-5.6-1.33-10.89-3.7-15.57.78-1.02.25-3.75-1.33-6.5-.53-.91-1.11-1.73-1.7-2.39.58-.06,1-.27,1.21-.63.69-1.2-1.23-3.6-4.29-5.36-2.89-1.68-5.77-2.18-6.65-1.21-.66-1.67-2.29-2.85-4.19-2.85-.7,0-1.37.16-1.96.45-.79-.2-1.82-.31-2.94-.31-1.21,0-2.32.13-3.12.36-1.9-.33-3.85-.5-5.84-.5s-3.95.17-5.86.5c-.8-.23-1.9-.36-3.13-.36s-2.3.13-3.1.35c-.61-.32-1.3-.49-2.04-.49-1.83,0-3.41,1.09-4.1,2.67-1.08-.71-3.75-.16-6.43,1.39-3.05,1.76-4.97,4.16-4.28,5.36.21.36.63.57,1.21.63-.59.66-1.17,1.48-1.7,2.39-1.57,2.71-2.11,5.41-1.36,6.46-2.38,4.69-3.72,9.99-3.72,15.61,0,.46.01.93.03,1.39-5.12,3.92-.73,17.9.53,21.9,2.97,9.47,8.13,15.53,11.54,19.47,1.93,2.22,6,6.91,10.42,10.8,2.4,2.11,4.9,3.99,7.21,5.1,1.09.36,2.23.6,3.41.7.45.05.91.07,1.37.07.3,0,.6-.01.89-.03.97-.05,1.91-.2,2.82-.43,2.85-1.19,6.03-3.67,8.99-6.39,3.98-3.67,7.55-7.78,9.32-9.82,3.41-3.93,8.57-9.99,11.54-19.46,1.23-3.91,5.43-17.28.9-21.59ZM40.53,10.13c.94-1.25,2.2-2.17,3.81-2.56,3.24-.74,7.39.69,9.11,3.58,2.37,3.66.69,7.96-3.82,7.64-1.75-.06-1.59-2.1-2.34-3.28-1.76-3.55-4.08-1.58-2.92,2.34.23.83.59,1.62,1.03,2.35,2.2,3.4,6.51,2.06,9.81.64,3.26-1.23.4-6.22,1.79-8.67,1.86-2.38,6.54,3.07,7.96,4.82,1.37,1.91,1.55,3.79-.84,4.64-.98.37-1.98.29-3.03.43-7.61.72-5.58,6.89-2.85,12.37l.09.19c3.71,7.63-7.87,5.45-7.94-.44-.22-2.29.42-5-1.02-6.98-.67-.88-1.85-1-2.96-1.04-1.95-.1-4.2.33-5.88-.61v-15.42ZM14.11,16.99c1.42-1.75,6.1-7.2,7.95-4.82,1.4,2.45-1.47,7.44,1.79,8.67,3.31,1.42,7.62,2.76,9.82-.64.44-.73.8-1.52,1.03-2.35,1.16-3.92-1.16-5.89-2.92-2.34-.75,1.18-.59,3.22-2.34,3.28-4.51.32-6.19-3.98-3.82-7.64,1.72-2.89,5.87-4.32,9.11-3.58,1.6.39,2.86,1.31,3.8,2.56v15.42c-1.67.94-3.92.51-5.88.61-1.1.04-2.29.16-2.95,1.04-1.44,1.98-.8,4.69-1.02,6.98-.07,5.89-11.66,8.07-7.95.44l.09-.19c2.74-5.48,4.77-11.65-2.84-12.37-1.06-.14-2.06-.06-3.03-.43-2.39-.85-2.22-2.73-.84-4.64ZM9.36,31.07c-1.49-5.92,6.35-9.52,10.2-4.97,1.88,2.4-1.33,3.91-2.61,5.48-1.37,2.64-.91,6.79.81,9.36,1.87,2.76,5.22,2.1,8.16,2.89,3.84.73,7.57,1.91,7.86,4.98.13,1.6-.64,3.61-1.81,4.68-1.35,1.16-3.25,1.4-4.74,2.3-1.3.59-1.77,2.26-2.99,2.84-1.1.36-2.5-.84-3.22-1.78-2.12-2.65-1.34-6.84,1.95-8.35l.17-.09c.7-.36,1.5-.75,1.98-1.39,1.2-1.63-3.15-2.57-5.14-.47-.61.57-1.17,1.47-1.98,1.71-.87.28-1.83-.32-2.5-.96-1.73-1.58-2.54-3.8-2.34-6.05.1-.88.64-1.7.75-2.57.09-3.08-3.92-4.72-4.55-7.61ZM36.18,84.01c-7.65,2.31-23.03-10.06-21.82-17.71.11-.7.67-1.26,1.36-1.37,5.96-.89,21.44,11.47,21.76,17.31.04.82-.51,1.53-1.3,1.77ZM36.64,63.48c-.64.21-1.27.46-1.87.76-5.32,2.7-9.92-6.17-2.51-7.37,7.9-3.07,5.28-14.41-2.36-16.04-1.3-.51-1.51-.82-1.12-1.22.72-.72,1.12-1.7,1.06-2.71-.34-5.32,1.48-8.55,8.11-7.35.21.04.41.12.58.22v32.28c-.49.68-1.11,1.18-1.89,1.43ZM40.53,62.05V29.77c.18-.1.37-.18.58-.22,6.64-1.2,8.45,2.03,8.12,7.35-.07,1.01.34,1.99,1.05,2.71.4.4.19.71-1.11,1.22-7.64,1.63-10.27,12.97-2.36,16.04,7.41,1.2,2.81,10.07-2.52,7.37-.6-.3-1.22-.55-1.86-.76-.79-.25-1.41-.75-1.9-1.43ZM42.46,84.01c-.79-.24-1.34-.95-1.3-1.77.32-5.84,15.8-18.2,21.76-17.31.69.11,1.25.67,1.36,1.37,1.21,7.65-14.17,20.02-21.82,17.71ZM69.71,31.07c-.64,2.89-4.65,4.53-4.55,7.61.11.87.65,1.69.75,2.57.2,2.25-.61,4.47-2.35,6.05-.66.64-1.62,1.24-2.5.96-.8-.24-1.36-1.14-1.98-1.71-1.98-2.1-6.34-1.16-5.14.47.48.64,1.29,1.03,1.99,1.39l.16.09c3.3,1.51,4.08,5.7,1.96,8.35-.72.94-2.13,2.14-3.22,1.78-1.22-.58-1.7-2.25-2.99-2.84-1.5-.9-3.4-1.14-4.74-2.3-1.17-1.07-1.94-3.08-1.82-4.68.29-3.07,4.03-4.25,7.87-4.98,2.93-.79,6.29-.13,8.16-2.89,1.71-2.57,2.18-6.72.81-9.36-1.29-1.57-4.5-3.08-2.61-5.48,3.84-4.55,11.69-.95,10.2,4.97Z" style="fill:#7f7f7f;"/></svg>