<?xml version="1.0" encoding="UTF-8"?><svg id="a" xmlns="http://www.w3.org/2000/svg" viewBox="0 0 72.27 48.28"><path d="M67.83,9.05c.13-.13.33-.13.45,0l3.43,3.43c.21.21.56.06.56-.23V.33c0-.09-.04-.18-.09-.23C72.12.03,72.03,0,71.95,0h-11.92c-.3,0-.44.35-.23.56l3.42,3.42c.13.13.13.33,0,.46l-10.68,10.68c-.13.13-.13.33,0,.46l4.15,4.15c.13.13.34.13.47,0l10.68-10.68Z" style="fill:#64feca;"/><polygon points="4.25 17.78 .5 21.53 .5 44.03 4.25 47.78 50.36 47.78 54.11 44.03 54.11 21.53 50.36 17.78 4.25 17.78" style="fill:none; stroke:#64feca; stroke-miterlimit:10;"/><path d="M10.2,20v5.52h-1.17v-3.28c0-.12,0-.25.02-.37.01-.13.03-.25.05-.37h-.05c-.04.13-.09.25-.14.37-.05.12-.11.24-.17.36l-1.9,3.3h-1.19v-5.52h1.17v3.22c0,.12,0,.25-.02.38-.01.13-.03.26-.04.4h.04c.05-.13.1-.25.16-.38.06-.12.12-.24.18-.35l1.88-3.26h1.19Z" style="fill:#64feca;"/><path d="M16.08,21.57c.27,0,.4.14.41.42l.13,3.54h-1.08l-.11-3.08h-.11l-.66,2.21c-.02.12-.07.21-.14.27-.07.06-.18.1-.3.1h-.59c-.13,0-.23-.03-.3-.1-.07-.06-.13-.15-.15-.27l-.66-2.21h-.11l-.1,3.08h-1.08l.12-3.54c0-.28.15-.42.42-.42h1.04c.12,0,.22.03.3.1s.12.16.14.28l.52,1.74c.03.1.06.19.07.29.02.1.03.19.04.3h.09c.02-.11.04-.21.05-.3s.03-.19.06-.28l.51-1.74c.05-.25.2-.38.45-.38h1.06Z" style="fill:#64feca;"/><path d="M18.7,21.57v3.95h-1.15v-3.95h1.15ZM20.26,21.57v.82h-1.61v-.82h1.61ZM21.34,21.57v3.95h-1.16v-3.95h1.16Z" style="fill:#64feca;"/><path d="M24.19,21.47c.67,0,1.15.11,1.44.34s.43.56.44,1.01c0,.36-.09.63-.27.81s-.51.27-.97.27h-2.22v-.66h1.89c.18,0,.29-.04.34-.12.05-.08.08-.19.07-.32,0-.19-.05-.32-.16-.39-.1-.07-.28-.11-.53-.11-.22,0-.39.03-.51.09-.12.06-.2.17-.25.34-.05.17-.07.41-.07.72,0,.33.03.59.09.76s.16.3.3.37c.14.07.33.1.58.1.19,0,.41,0,.68-.02s.54-.04.81-.07l.1.73c-.15.07-.32.13-.52.18-.2.04-.4.07-.61.09s-.41.03-.61.03c-.5,0-.9-.07-1.2-.22s-.53-.37-.66-.68c-.14-.3-.2-.69-.2-1.17,0-.52.07-.93.21-1.23.14-.3.36-.52.66-.66.3-.13.69-.2,1.17-.2Z" style="fill:#64feca;"/><path d="M27.81,21.57l.12.72.1.12v2.57l-.04.1c.02.16.03.33.04.5,0,.17,0,.35,0,.52v.95h-1.18v-5.47h.95ZM29.45,21.48c.5,0,.86.18,1.07.54s.32.88.32,1.56c0,.53-.06.94-.17,1.24-.11.3-.28.51-.5.63s-.5.18-.83.18c-.28,0-.55-.04-.8-.12s-.48-.21-.68-.4l.07-.53c.18.05.34.1.49.14.14.04.31.06.5.06.17,0,.31-.03.41-.09.1-.06.17-.17.22-.35.05-.17.07-.43.07-.76s-.02-.57-.06-.75c-.04-.17-.11-.29-.2-.36s-.22-.1-.37-.1c-.18,0-.34.03-.48.1s-.31.16-.49.28l-.15-.54c.11-.14.24-.27.41-.38s.35-.2.56-.26c.2-.06.41-.1.62-.1Z" style="fill:#64feca;"/><path d="M33.51,21.47c.14,0,.29,0,.47.02.17.01.35.04.52.07.17.03.33.08.47.15l-.13.74c-.22,0-.42-.01-.62-.02-.19,0-.37,0-.52,0-.24,0-.43.03-.57.1-.14.06-.24.18-.3.34-.06.16-.09.39-.09.68s.03.52.09.69c.06.17.16.28.3.34.14.06.33.1.57.1.09,0,.2,0,.33,0s.28-.01.43-.02c.15,0,.31-.02.46-.04l.11.75c-.21.1-.46.17-.73.21-.27.04-.54.06-.81.06-.49,0-.88-.07-1.17-.2-.29-.14-.5-.36-.63-.66-.13-.3-.19-.71-.19-1.22s.06-.91.19-1.22c.13-.3.34-.52.63-.66.29-.13.69-.2,1.18-.2Z" style="fill:#64feca;"/><path d="M36.94,21.57v1.02c0,.14-.01.29-.04.44-.03.15-.07.29-.12.42.05.12.09.25.12.4.03.14.05.27.05.38v1.3h-1.18v-3.95h1.18ZM37.51,23.08v.81h-.86v-.81h.86ZM39.49,21.57c-.1.3-.18.55-.25.76s-.14.38-.2.52c-.07.14-.14.24-.22.32-.08.08-.18.14-.3.18s-.27.07-.44.1v.03c.18.03.33.06.46.1.12.04.23.1.32.18.09.08.17.2.25.34.08.14.15.33.23.56.08.23.17.51.28.86h-1.23c-.1-.3-.18-.55-.24-.74s-.13-.36-.19-.48c-.06-.12-.12-.21-.19-.27-.07-.06-.14-.1-.23-.12-.09-.02-.2-.03-.32-.03l-.02-.81c.16,0,.29-.02.39-.06.1-.04.19-.12.26-.23.07-.11.14-.26.21-.46.07-.19.15-.45.24-.76h1.2Z" style="fill:#64feca;"/><path d="M44.16,21.57v3.95h-1.06s0-2.06,0-2.06c0-.11,0-.21.01-.31,0-.1.02-.21.04-.33h-.03c-.03.1-.08.2-.14.31-.06.11-.12.2-.17.28l-1.5,2.11h-1.03v-3.95h1.06v2.13c0,.1,0,.19,0,.28s-.02.19-.03.3h.02c.04-.1.09-.2.14-.28s.1-.17.16-.25l1.52-2.18h1.02Z" style="fill:#64feca;"/><path d="M49.04,21.57v3.95h-1.06s0-2.06,0-2.06c0-.11,0-.21.01-.31,0-.1.02-.21.04-.33h-.03c-.03.1-.08.2-.14.31-.06.11-.12.2-.17.28l-1.5,2.11h-1.03v-3.95h1.06v2.13c0,.1,0,.19,0,.28s-.02.19-.03.3h.02c.04-.1.09-.2.14-.28s.1-.17.16-.25l1.52-2.18h1.02ZM47.64,19.83h.77c.03.22,0,.42-.1.61s-.25.34-.46.46c-.21.12-.46.18-.75.18s-.54-.06-.75-.18-.36-.27-.46-.46c-.1-.19-.14-.39-.11-.61h.78c-.02.23.03.4.12.51s.24.16.43.16.32-.05.42-.16c.1-.1.14-.27.12-.51Z" style="fill:#64feca;"/><path d="M14.8,28.57v1.02c0,.14-.02.29-.04.44-.03.15-.07.29-.12.42.05.12.09.25.12.4.03.14.05.27.05.38v1.3h-1.18v-3.95h1.18ZM15.37,30.08v.81h-.86v-.81h.86ZM17.35,28.57c-.1.3-.18.55-.25.76s-.14.38-.2.52c-.07.14-.14.24-.22.32s-.18.14-.3.18c-.12.04-.27.08-.44.1v.03c.18.03.33.06.46.1s.23.1.32.18c.09.08.17.2.25.34.07.14.15.33.23.56s.17.52.28.86h-1.23c-.1-.3-.18-.55-.24-.74-.07-.2-.13-.36-.19-.48-.06-.12-.12-.21-.19-.27-.07-.06-.14-.1-.23-.12-.09-.02-.2-.03-.32-.03l-.02-.81c.16,0,.29-.02.39-.06.1-.04.19-.12.26-.23.07-.11.14-.26.21-.46.07-.2.15-.45.24-.76h1.2Z" style="fill:#64feca;"/><path d="M19.97,28.47c.5,0,.89.07,1.19.2.3.14.51.36.64.66.13.3.2.71.2,1.22s-.07.9-.2,1.21c-.13.3-.35.52-.64.66-.3.13-.7.2-1.19.2s-.89-.07-1.19-.2c-.3-.13-.51-.35-.65-.66-.13-.3-.2-.71-.2-1.21s.07-.92.2-1.22c.13-.3.35-.52.65-.66.3-.14.7-.2,1.19-.2ZM19.97,29.33c-.2,0-.36.03-.48.1-.12.07-.2.19-.25.37-.05.18-.07.43-.07.75s.02.57.07.74c.05.18.13.3.25.36.12.07.28.1.48.1s.36-.03.48-.1c.12-.07.2-.19.24-.36.05-.18.07-.42.07-.74s-.02-.58-.07-.75-.13-.3-.24-.37c-.12-.07-.28-.1-.48-.1Z" style="fill:#64feca;"/><path d="M24.66,28.47c.14,0,.29,0,.47.02.17.01.35.04.52.07.17.04.33.08.48.15l-.13.74c-.22,0-.42-.01-.62-.02-.19,0-.37,0-.52,0-.24,0-.43.03-.57.1-.14.06-.24.18-.3.34-.06.16-.09.39-.09.68s.03.52.09.69c.06.17.16.28.3.34.14.06.33.1.57.1.09,0,.19,0,.33,0,.13,0,.28-.01.43-.02.15,0,.31-.02.46-.04l.11.75c-.21.1-.46.17-.73.21-.27.04-.54.06-.81.06-.49,0-.88-.07-1.17-.2-.29-.14-.5-.36-.63-.66-.13-.3-.19-.71-.19-1.22s.06-.91.19-1.22c.13-.3.34-.52.63-.66.29-.13.69-.2,1.18-.2Z" style="fill:#64feca;"/><path d="M31.72,28.57c.27,0,.4.14.41.42l.13,3.54h-1.08l-.11-3.08h-.11l-.66,2.21c-.02.12-.07.21-.14.27-.07.06-.18.1-.3.1h-.59c-.13,0-.23-.03-.3-.1-.07-.06-.13-.16-.15-.27l-.66-2.21h-.11l-.1,3.08h-1.08l.12-3.54c0-.28.15-.42.42-.42h1.04c.12,0,.22.03.3.1.07.06.12.16.14.28l.52,1.74c.03.1.06.19.07.29.02.1.03.19.04.3h.09c.02-.11.04-.21.05-.3s.03-.19.06-.28l.51-1.74c.05-.25.2-.38.45-.38h1.06Z" style="fill:#64feca;"/><path d="M35.05,28.47c.5,0,.89.07,1.19.2.3.14.51.36.64.66.13.3.2.71.2,1.22s-.07.9-.2,1.21c-.13.3-.35.52-.64.66-.3.13-.7.2-1.19.2s-.89-.07-1.19-.2c-.3-.13-.51-.35-.65-.66-.13-.3-.2-.71-.2-1.21s.07-.92.2-1.22c.13-.3.35-.52.65-.66s.7-.2,1.19-.2ZM35.05,29.33c-.2,0-.36.03-.48.1s-.2.19-.25.37c-.05.18-.07.43-.07.75s.02.57.07.74c.05.18.13.3.25.36.12.07.28.1.48.1s.36-.03.48-.1c.12-.07.2-.19.24-.36.05-.18.07-.42.07-.74s-.02-.58-.07-.75c-.04-.18-.13-.3-.24-.37s-.28-.1-.48-.1Z" style="fill:#64feca;"/><path d="M39.74,28.47c.14,0,.29,0,.47.02.17.01.35.04.52.07.17.04.33.08.48.15l-.13.74c-.22,0-.42-.01-.62-.02-.19,0-.37,0-.52,0-.24,0-.43.03-.57.1-.14.06-.24.18-.3.34-.06.16-.09.39-.09.68s.03.52.09.69.16.28.3.34c.14.06.33.1.57.1.08,0,.19,0,.33,0,.13,0,.28-.01.43-.02.15,0,.31-.02.46-.04l.11.75c-.21.1-.46.17-.73.21-.27.04-.54.06-.81.06-.49,0-.88-.07-1.17-.2-.29-.14-.5-.36-.63-.66-.13-.3-.19-.71-.19-1.22s.06-.91.19-1.22c.13-.3.34-.52.63-.66.29-.13.68-.2,1.18-.2Z" style="fill:#64feca;"/><text transform="translate(8.74 44.92)" style="fill:#64feca; font-family:Exo2-Bold, &apos;Exo 2&apos;; font-size:8px; font-variation-settings:&apos;wght&apos; 700; font-weight:700;"><tspan x="0" y="0">90 св. л</tspan><tspan x="28.58" y="0" style="letter-spacing:0em;">е</tspan><tspan x="33.02" y="0" style="letter-spacing:0em;">т</tspan></text><line x1="54.11" y1="35.94" x2=".5" y2="35.94" style="fill:#64feca; stroke:#64feca; stroke-miterlimit:10;"/></svg>