<?xml version="1.0" encoding="UTF-8"?><svg id="a" xmlns="http://www.w3.org/2000/svg" viewBox="0 0 93.6 83.38"><circle cx="46.8" cy="37.5" r="20.7" style="fill:#7f7f7f;"/><path d="M54.05,14.37h0L46.81,0l-7.24,14.37h0l-.95,1.9c2.55-.99,5.31-1.53,8.2-1.53s5.65.55,8.2,1.53l-.95-1.9h-.02ZM46.8,13.37c-2.16,0-4.23.41-6.13,1.15l.71-1.42h0l5.42-10.75,5.42,10.75h0l.71,1.42c-1.91-.74-3.97-1.15-6.13-1.15Z" style="fill:#7f7f7f;"/><path d="M35.58,16.01h0l-15.28-5.03,5.04,15.28h0l.67,2.02c1.11-2.5,2.68-4.84,4.72-6.88s4.38-3.61,6.88-4.72l-2.01-.67h-.02ZM29.74,20.44c-1.53,1.53-2.7,3.28-3.53,5.15l-.5-1.51h0l-3.77-11.43,11.43,3.77h0l1.51.49c-1.87.83-3.62,2-5.15,3.53h0Z" style="fill:#7f7f7f;"/><path d="M23.67,30.25h0l-14.37,7.25,14.37,7.24h0l1.9.96c-.99-2.55-1.53-5.31-1.53-8.2s.55-5.65,1.53-8.2l-1.9.95ZM22.68,37.5c0,2.16.41,4.23,1.15,6.13l-1.42-.71h0l-10.75-5.42,10.75-5.42h0l1.42-.72c-.74,1.91-1.15,3.97-1.15,6.13h0Z" style="fill:#7f7f7f;"/><path d="M25.32,48.72h0l-5.04,15.29,15.28-5.04h0l2.01-.66c-2.5-1.11-4.84-2.68-6.88-4.72s-3.61-4.38-4.72-6.88l-.67,2.01h.02ZM29.74,54.56c1.53,1.53,3.28,2.7,5.15,3.53l-1.51.5h0l-11.43,3.76,3.77-11.43h0l.5-1.51c.83,1.87,2,3.62,3.53,5.15h0Z" style="fill:#7f7f7f;"/><path d="M39.55,60.63h0l7.24,14.37,7.24-14.37h0l.95-1.9c-2.55.99-5.31,1.53-8.2,1.53s-5.65-.55-8.2-1.53l.95,1.9h.02ZM46.8,61.62c2.16,0,4.23-.41,6.13-1.15l-.71,1.42h0l-5.42,10.75-5.42-10.75h0l-.71-1.42c1.91.74,3.97,1.15,6.13,1.15Z" style="fill:#7f7f7f;"/><path d="M58.03,58.98h0l15.28,5.03-5.04-15.28h0l-.67-2.02c-1.11,2.5-2.68,4.84-4.72,6.88s-4.38,3.61-6.88,4.72l2.01.67h.02ZM63.86,54.56c1.53-1.53,2.7-3.28,3.53-5.15l.5,1.51h0l3.77,11.43-11.43-3.77h0l-1.51-.49c1.87-.83,3.62-2,5.15-3.53h0Z" style="fill:#7f7f7f;"/><path d="M69.93,44.75h0l14.37-7.25-14.37-7.24h0l-1.9-.96c.99,2.55,1.53,5.31,1.53,8.2s-.55,5.65-1.53,8.2l1.9-.95ZM70.93,37.5c0-2.16-.41-4.23-1.15-6.13l1.42.71h0l10.75,5.42-10.75,5.42h0l-1.42.72c.74-1.91,1.15-3.97,1.15-6.13h0Z" style="fill:#7f7f7f;"/><path d="M68.29,26.27h0l5.04-15.29-15.28,5.04h0l-2.01.66c2.5,1.11,4.84,2.68,6.88,4.72,2.04,2.04,3.61,4.38,4.72,6.88l.67-2.01h-.02ZM63.86,20.44c-1.53-1.53-3.28-2.7-5.15-3.53l1.51-.5h0l11.43-3.76-3.77,11.43h0l-.5,1.51c-.83-1.87-2-3.62-3.53-5.15h0Z" style="fill:#7f7f7f;"/><path d="M55.01,81.63c6.41-1.17,12.39-11.99,17-11.74-2.64,2.49-3.63,6.46-6.75,8.56-1.27,1.26-3.08,1.82-4.7,2.45,1.8.27,3.65-.64,5.36-.86,4.58-.78,9.69.3,13.65-2.84-5.05,8.27-16.83,6.53-24.55,4.43h-.01Z" style="fill:#7f7f7f;"/><path d="M67.73,78.16c5.55-3.41,7.2-15.66,11.59-17.1-1.56,3.28-1.04,7.34-3.19,10.43-.73,1.63-2.22,2.81-3.49,3.98,1.77-.4,3.17-1.92,4.68-2.74,3.99-2.39,9.14-3.23,11.69-7.59-1.71,9.54-13.32,12.19-21.28,13.02h0Z" style="fill:#7f7f7f;"/><path d="M78.02,70.99c3.96-4.67,2.04-15.81,5.52-18.41-.47,3.33,1.11,6.69.07,10.03-.19,1.64-1.18,3.12-1.99,4.53,1.46-.89,2.27-2.65,3.38-3.82,2.87-3.3,7.2-5.62,8.24-10.19,1.12,8.8-8.41,14.68-15.22,17.86Z" style="fill:#7f7f7f;"/><path d="M85.13,61.06c1.62-3.84-3.66-10.89,1.59-18.44-.44.64.46,6.82.67,10.47.08,1.4-.11,2.78-.38,4.09.94-1.03,1.13-2.62,1.71-3.81,1.44-3.28,4.33-6.07,3.93-9.99,3.34,6.89-2.84,13.67-7.52,17.68Z" style="fill:#7f7f7f;"/><path d="M88.66,50.65s2.59-3.65,2.71-7.88-2.71-8.69-2.71-8.69c0,0-1.29,11.04,0,16.57Z" style="fill:#7f7f7f;"/><path d="M14.04,77.21c3.95,3.14,9.06,2.06,13.65,2.84,1.7.21,3.56,1.12,5.36.86-1.61-.63-3.43-1.19-4.7-2.45-3.12-2.1-4.1-6.07-6.75-8.56,4.61-.24,10.59,10.57,17,11.74-7.72,2.1-19.5,3.84-24.55-4.43h-.01Z" style="fill:#7f7f7f;"/><path d="M4.6,65.14c2.55,4.36,7.7,5.2,11.69,7.59,1.51.82,2.91,2.34,4.68,2.74-1.27-1.17-2.76-2.35-3.49-3.98-2.15-3.09-1.63-7.15-3.19-10.43,4.38,1.44,6.04,13.69,11.59,17.1-7.96-.84-19.57-3.49-21.28-13.02Z" style="fill:#7f7f7f;"/><path d="M.36,53.13c1.05,4.57,5.37,6.89,8.24,10.19,1.11,1.17,1.93,2.92,3.38,3.82-.8-1.41-1.79-2.89-1.99-4.53-1.05-3.34.54-6.7.07-10.03,3.48,2.6,1.56,13.74,5.52,18.41C8.77,67.81-.77,61.93.36,53.13Z" style="fill:#7f7f7f;"/><path d="M.95,43.38c-.4,3.92,2.49,6.71,3.93,9.99.58,1.19.77,2.78,1.71,3.81-.27-1.31-.46-2.69-.38-4.09.21-3.66,1.11-9.84.67-10.47,5.24,7.55-.03,14.6,1.59,18.44-4.69-4.01-10.86-10.79-7.52-17.68Z" style="fill:#7f7f7f;"/><path d="M4.95,50.65s-2.59-3.65-2.71-7.88,2.71-8.69,2.71-8.69c0,0,1.29,11.04,0,16.57Z" style="fill:#7f7f7f;"/></svg>