<?xml version="1.0" encoding="UTF-8"?><svg id="a" xmlns="http://www.w3.org/2000/svg" viewBox="0 0 97.12 95.54"><path d="M49.72,36.26l2.5,7.7h8.09c.48,0,.68.62.29.9l-6.55,4.76,2.5,7.7c.15.46-.38.84-.77.56l-6.55-4.76-6.55,4.76c-.39.28-.92-.1-.77-.56l2.5-7.7-6.55-4.76c-.39-.28-.19-.9.29-.9h8.09s2.5-7.7,2.5-7.7c.15-.46.8-.46.95,0Z" style="fill:#7f7f7f;"/><path d="M63.41,14.36c5.28-4.13.06-13.07-6.17-10.38-8.5-9.13-16.99-.99-20.76,8.82-7.17-3.2-18.82-6.19-23.66,2.06-8.47-1.02-9.31,12.1-.78,12.19.79,3.24,2,6.78,3.53,9.65-14.11,4.82-23.13,16.5-6.88,26.12-.76,5.8,7.21,9.05,10.75,4.54,4.94,1.66,10.56,2.68,15.69,3.13.66,1.44,1.51,3.82,2.38,5.16-1.52,4.62-3.39,9.55-5.2,14.07-2.2,3.64,3.21,4.5,5.77,4.56,2.8-3.47,5.18-7.66,7.76-11.3l2.75.07c2.37,4.02,4.48,8.46,6.83,12.49,3.29-.33,6.65-1.44,9.82-2.32.36-4.24-.15-8.94.16-13.19.91-.63,2.32-1.38,3.3-1.89,3.96,1.88,7.85,4.76,11.88,6.34,2.16-2.47,5.02-4.54,6.9-7.27-2.54-3.67-4.66-7.88-7.26-11.49.5-.84,1.16-2.02,1.5-2.94,4.57-.33,9.11-.51,13.83-.96.59-3.24,2.1-6.76,1.39-10.08-3.87-1.77-7.77-3.98-11.61-5.87-.38-.98-.25-2.48-.33-3.5,3.62-2.44,7.44-5.15,10.79-7.92-.86-3.11-2.16-6.36-3.63-9.22-4.51.29-9.38,1.25-13.89,1.49-.46-.51-1.34-1.7-1.73-2.27.96-4.27,3.45-8.82,4.73-13.04-1.43-1.47-3.5-2.41-5.29-3.59l-.42.07c-3.42,4.47-6.37,9.82-9.58,14.49M40.49,12.41c2.63-5.17,8.36-12.53,13.99-6.27-3.04,4.02.45,10.22,5.51,9.64,1.44,3.45,2.18,7.31,3.2,10.88,0,0-.35,1.62-.5,1.9-4.75-4-10.57-7.79-15.83-10.98,0,0-2.95-1.63-4.41-2.27-1.78-1.15-3.15-.29-1.96-2.9ZM35.33,31.54c.71-4.89,1.8-9.91,3.46-14.58,8.04,4,15.89,9.04,22.78,14.8-.04.05-.03.22-.03.28-8.67-.77-17.58-.98-26.23.17,0,0,.02-.64.02-.67ZM15.11,26.22c3.71-1.91,4.06-7.87.59-10.19,4.79-5.59,13.72-2.54,19.6-.39-1.99,5.32-3.13,11.5-3.78,17.11-4.37.41-8.79,1.42-12.88,2.99-1.39-3.04-2.57-6.3-3.53-9.52ZM31.23,48.38c-.17,1.77.36,5.41.63,7.24-4.61-4.89-8.04-11-11.63-16.64,3.4-1.21,7.48-1.82,11-2.57-.25,3.2-.23,8.78,0,11.97ZM33.42,66.73c-4.18-.62-8.44-1.58-12.56-2.59.96-5.88-7.14-9.32-10.74-4.71-13.91-7.81-2.5-15.88,7.13-19.51,4.22,7.67,9.2,15.49,15.52,21.54l.12.51h-.05s1.24,4.71,1.24,4.71l-.66.05ZM67.14,52.3c-1.73,11.66-16.31,18.61-26.53,13.01-.43-.51-4.4-4.3-4.32-4.97-1.68-8.02-1.73-16.42-1.4-24.57,8.79-1.26,17.85-.63,26.65-.08v.16c4.53,3.94,6.55,10.59,5.6,16.45Z" style="fill:#7f7f7f;"/></svg>