<?xml version="1.0" encoding="UTF-8"?><svg id="b" xmlns="http://www.w3.org/2000/svg" viewBox="0 0 98.13 88.21"><circle cx="18.41" cy="47.52" r="2.25" style="fill:#7f7f7f;"/><circle cx="79.72" cy="47.52" r="2.25" style="fill:#7f7f7f;"/><circle cx="49.07" cy="26.25" r="26.25" style="fill:#7f7f7f;"/><circle cx="49.07" cy="71.71" r="16.5" style="fill:#7f7f7f;"/><circle cx="71.24" cy="76.95" r="3.5" style="fill:#7f7f7f;"/><circle cx="26.89" cy="76.95" r="3.5" style="fill:#7f7f7f;"/><circle cx="4.75" cy="64.43" r="4.75" style="fill:#7f7f7f;"/><circle cx="93.38" cy="64.43" r="4.75" style="fill:#7f7f7f;"/><path d="M83.73,66.99c-.71,3.2-15.95,4.01-15.63-1.52-.06-6.05,6.65-13.22,14.23-12.72,17.17,1.53,2.27,4.19,2.27,10.01,0,3.03-.61,3.85-.86,4.22Z" style="fill:#7f7f7f;"/><path d="M14.4,66.99c.71,3.2,15.95,4.01,15.63-1.52.06-6.05-6.65-13.22-14.23-12.72-17.17,1.53-2.27,4.19-2.27,10.01,0,3.03.61,3.85.86,4.22Z" style="fill:#7f7f7f;"/><path d="M94.48,50.55c-6.96-.15-14.5-5.03-12.1-17.87,2.65-12.12-.07-18.09-6.98-26.77-.24-5.98,23.09,5.17,17.69,20.79-.73,3.52.46,11.18,1.62,16.39.25,1.4,3.27,6.98-.23,7.47Z" style="fill:#7f7f7f;"/><path d="M3.65,50.55c6.96-.15,14.5-5.03,12.1-17.87-2.65-12.12.07-18.09,6.98-26.77C22.97-.07-.36,11.08,5.04,26.69c.73,3.52-.46,11.18-1.62,16.39-.25,1.4-3.27,6.98.23,7.47Z" style="fill:#7f7f7f;"/></svg>