<?xml version="1.0" encoding="UTF-8"?><svg id="a" xmlns="http://www.w3.org/2000/svg" viewBox="0 0 106.96 114.19"><rect x="35.93" y="41.87" width="37.69" height="37.69" rx="1" ry="1" style="fill:#540006;"/><rect x="52.78" y="24.74" width="4" height="13.71" rx="1" ry="1" style="fill:#540006;"/><rect x="37.93" y="24.74" width="4" height="13.71" rx="1" ry="1" style="fill:#540006;"/><rect x="45.36" y="24.74" width="4" height="13.71" rx="1" ry="1" style="fill:#540006;"/><rect x="52.78" y="82.99" width="4" height="13.71" rx="1" ry="1" style="fill:#540006;"/><rect x="67.63" y="82.99" width="4" height="13.71" rx="1" ry="1" style="fill:#540006;"/><rect x="60.2" y="82.99" width="4" height="13.71" rx="1" ry="1" style="fill:#540006;"/><rect x="23.66" y="53.87" width="4" height="13.71" rx="1" ry="1" transform="translate(-35.06 86.37) rotate(-90)" style="fill:#540006;"/><rect x="23.66" y="39.02" width="4" height="13.71" rx="1" ry="1" transform="translate(-20.22 71.52) rotate(-90)" style="fill:#540006;"/><rect x="23.66" y="46.44" width="4" height="13.71" rx="1" ry="1" transform="translate(-27.64 78.95) rotate(-90)" style="fill:#540006;"/><rect x="81.91" y="53.87" width="4" height="13.71" rx="1" ry="1" transform="translate(23.19 144.62) rotate(-90)" style="fill:#540006;"/><rect x="81.91" y="68.71" width="4" height="13.71" rx="1" ry="1" transform="translate(8.34 159.47) rotate(-90)" style="fill:#540006;"/><rect x="81.91" y="61.29" width="4" height="13.71" rx="1" ry="1" transform="translate(15.76 152.05) rotate(-90)" style="fill:#540006;"/><path d="M102.38,47.11c-1.18,1.18-2.87,1.53-4.35,1.04l-6.94,6.81c-.21.21-.5.32-.79.32h-12.11c-.62,0-1.13-.51-1.14-1.13v-1.73c0-.63.51-1.14,1.14-1.14h10.61c.31,0,.59-.12.8-.33l5.65-5.65c-.44-1.47-.07-3.11,1.07-4.26,1.67-1.67,4.39-1.67,6.06,0s1.67,4.39,0,6.06Z" style="fill:#540006;"/><path d="M7.18,74.3c1.18-1.18,2.87-1.53,4.35-1.04l6.94-6.81c.21-.21.5-.32.79-.32h12.11c.62,0,1.13.51,1.14,1.13v1.73c0,.63-.51,1.14-1.14,1.14h-10.61c-.31,0-.59.12-.8.33l-5.65,5.65c.44,1.47.07,3.11-1.07,4.26-1.67,1.67-4.39,1.67-6.06,0s-1.67-4.39,0-6.06Z" style="fill:#540006;"/><path d="M41.18,108.31c1.18-1.18,1.53-2.87,1.04-4.35l6.81-6.94c.21-.21.32-.5.32-.79v-12.11c0-.62-.51-1.13-1.13-1.14h-1.73c-.63,0-1.14.51-1.14,1.14v10.61c0,.31-.12.59-.33.8l-5.65,5.65c-1.47-.44-3.11-.07-4.26,1.07-1.67,1.67-1.67,4.39,0,6.06s4.39,1.67,6.06,0Z" style="fill:#540006;"/><path d="M68.39,13.12c-1.18,1.18-1.53,2.87-1.04,4.35l-6.81,6.94c-.21.21-.32.5-.32.79v12.11c0,.62.51,1.13,1.13,1.14h1.73c.63,0,1.14-.51,1.14-1.14v-10.61c0-.31.12-.59.33-.8l5.65-5.65c1.47.44,3.11.07,4.26-1.07,1.67-1.67,1.67-4.39,0-6.06s-4.39-1.67-6.06,0Z" style="fill:#540006;"/><path d="M35.21,87.84h2.72s0-3.71,0-3.71c0-.63.51-1.14,1.14-1.14h1.7c.64,0,1.15.51,1.15,1.14v11.41c0,.64-.51,1.15-1.15,1.15h-1.7c-.63,0-1.14-.52-1.14-1.16v-3.7h-1.54s-13.35,13.36-13.35,13.36c.44,1.46.09,3.11-1.07,4.26-1.67,1.67-4.39,1.67-6.06,0s-1.67-4.39,0-6.06c1.17-1.17,2.84-1.52,4.31-1.05l14.17-14.17c.04-.06.1-.1.17-.15.12-.07.26-.13.42-.16.06-.02.15-.03.23-.03Z" style="fill:#540006;"/><path d="M74.35,33.59h-2.72s0,3.71,0,3.71c0,.63-.51,1.14-1.14,1.14h-1.7c-.64,0-1.15-.51-1.15-1.14v-11.41c0-.64.51-1.15,1.15-1.15h1.7c.63,0,1.14.52,1.14,1.16v3.7h1.54s13.35-13.36,13.35-13.36c-.44-1.46-.09-3.11,1.07-4.26,1.67-1.67,4.39-1.67,6.06,0s1.67,4.39,0,6.06c-1.17,1.17-2.84,1.52-4.31,1.05l-14.17,14.17c-.04.06-.1.1-.17.15-.12.07-.26.13-.42.16-.06.02-.15.03-.23.03Z" style="fill:#540006;"/><path d="M27.65,80.29v-2.72s3.71,0,3.71,0c.63,0,1.14-.51,1.14-1.14v-1.7c0-.64-.51-1.15-1.14-1.15h-11.41c-.64,0-1.15.51-1.15,1.15v1.7c0,.63.52,1.14,1.16,1.14h3.7v1.54s-13.36,13.35-13.36,13.35c-1.46-.44-3.11-.09-4.26,1.07-1.67,1.67-1.67,4.39,0,6.06s4.39,1.67,6.06,0c1.17-1.17,1.52-2.84,1.05-4.31l14.17-14.17c.06-.04.1-.1.15-.17.07-.12.13-.26.16-.42.02-.06.03-.15.03-.23Z" style="fill:#540006;"/><path d="M81.91,41.15v2.72s-3.71,0-3.71,0c-.63,0-1.14.51-1.14,1.14v1.7c0,.64.51,1.15,1.14,1.15h11.41c.64,0,1.15-.51,1.15-1.15v-1.7c0-.63-.52-1.14-1.16-1.14h-3.7v-1.54s13.36-13.35,13.36-13.35c1.46.44,3.11.09,4.26-1.07,1.67-1.67,1.67-4.39,0-6.06-1.67-1.67-4.39-1.67-6.06,0-1.17,1.17-1.52,2.84-1.05,4.31l-14.17,14.17c-.06.04-.1.1-.15.17-.07.12-.13.26-.16.42-.02.06-.03.15-.03.23Z" style="fill:#540006;"/></svg>