<?xml version="1.0" encoding="UTF-8"?><svg id="a" xmlns="http://www.w3.org/2000/svg" viewBox="0 0 96.96 31"><path d="M18.93,16.16c-.51,0-.9-.11-1.18-.32s-.41-.51-.41-.9h0c0-.21.06-.4.19-.59s.3-.3.52-.33c-.19-.08-.34-.21-.45-.39s-.16-.38-.16-.59h0c0-.34.13-.6.39-.78s.63-.27,1.11-.27c.34,0,.64.05.88.16s.43.27.57.49l-.58.47c-.24-.27-.53-.4-.87-.4-.22,0-.39.04-.52.11s-.19.18-.19.32h0c0,.16.04.28.11.37s.18.13.31.13h.68v.78h-.68c-.16,0-.29.04-.38.11s-.14.18-.14.32h0c0,.18.07.32.21.42s.33.15.58.15c.14,0,.28-.04.44-.11s.31-.19.46-.34l.54.54c-.17.21-.37.37-.61.48-.24.11-.52.16-.84.16h.02Z" style="fill:#33b319;"/><path d="M28.56,10.58c.29,0,.44.15.45.45l.21,5.07h-1.13l-.18-4.58h-.14l-.89,3.44c-.05.26-.21.38-.48.38h-.77c-.27,0-.44-.13-.5-.38l-.89-3.44h-.14l-.17,4.58h-1.14l.21-5.07c.01-.3.16-.45.46-.45h1.14c.26,0,.42.13.48.39l.71,2.78c.03.13.06.26.08.39s.05.26.07.4h.1c.03-.13.05-.27.08-.4s.05-.26.08-.4l.7-2.77c.05-.26.21-.39.48-.39,0,0,1.18,0,1.18,0Z" style="fill:#33b319;"/><path d="M33.63,12.63c-.12-.21-.3-.36-.52-.45-.23-.09-.51-.13-.85-.13-.2,0-.42.01-.67.02-.25.02-.5.04-.75.07s-.47.06-.67.1l.12.78c.32-.02.63-.04.93-.05.31-.01.56-.02.77-.02.24,0,.4.04.49.13.09.08.14.22.14.41v.18h-1.44c-.37,0-.66.09-.88.26-.21.18-.32.43-.32.74v.41c0,.24.06.45.17.61.11.17.26.29.46.38.19.09.4.13.64.13s.47-.04.66-.12c.2-.08.37-.18.51-.29.13-.1.23-.21.32-.31l.12.62h.95v-2.61c0-.36-.06-.65-.18-.86ZM32.07,15.25c-.16.05-.31.08-.45.08-.16,0-.28-.03-.35-.1-.08-.08-.12-.18-.12-.31v-.19c0-.12.03-.21.1-.28.06-.07.16-.11.31-.11h1.06v.61s-.04.04-.06.05c-.16.1-.32.19-.49.25Z" style="fill:#33b319;"/><path d="M38.5,12.15v3.95h-1.17v-3.13h-.53c-.14,0-.23.03-.3.09-.06.06-.1.16-.12.29-.02.22-.05.44-.08.66-.03.22-.06.43-.09.63-.04.2-.07.37-.12.52-.05.28-.16.5-.32.65s-.35.25-.57.3-.46.06-.72.03l-.12-.87c.12-.03.23-.05.32-.08s.16-.07.22-.12c.05-.05.1-.13.13-.23.03-.09.06-.2.09-.33.02-.12.05-.26.07-.41s.04-.3.06-.47c0-.17.03-.33.04-.5.04-.32.14-.57.3-.73.17-.17.42-.25.76-.25,0,0,2.15,0,2.15,0Z" style="fill:#33b319;"/><path d="M41.37,12.05c.5,0,.89.07,1.19.2.3.14.51.36.64.66s.2.71.2,1.22-.07.9-.2,1.21c-.13.3-.35.52-.64.66-.3.13-.7.2-1.19.2s-.89-.07-1.19-.2c-.3-.13-.51-.35-.65-.66-.13-.3-.2-.71-.2-1.21s.07-.92.2-1.22.35-.52.65-.66c.3-.14.7-.2,1.19-.2ZM41.37,12.91c-.2,0-.36.03-.48.1-.12.07-.2.19-.25.37s-.07.43-.07.75.02.57.07.74c.05.18.13.3.25.36.12.07.28.1.48.1s.36-.03.48-.1c.12-.07.2-.19.24-.36.05-.18.07-.42.07-.74s-.02-.58-.07-.75c-.05-.18-.13-.3-.24-.37-.12-.07-.28-.1-.48-.1Z" style="fill:#33b319;"/><path d="M48.11,12.15v3.95h-1.06v-2.37c0-.1.02-.21.04-.33h-.03c-.03.1-.08.2-.14.31-.06.11-.12.2-.17.28l-1.5,2.11h-1.03v-3.95h1.06v2.41c0,.09-.02.19-.03.3h.02c.04-.1.09-.2.14-.28s.1-.17.16-.25l1.52-2.18h1.02,0,0ZM46.71,10.41h.77c.03.22,0,.42-.1.61s-.25.34-.46.46-.46.18-.75.18-.54-.06-.75-.18-.36-.27-.46-.46-.14-.39-.11-.61h.78c-.02.23.03.4.12.51s.24.16.43.16.32-.05.42-.16c.1-.1.14-.27.12-.51h0Z" style="fill:#33b319;"/><path d="M56.56,10.58c.29,0,.44.15.45.45l.21,5.07h-1.13l-.18-4.58h-.14l-.89,3.44c-.05.26-.21.38-.48.38h-.77c-.27,0-.44-.13-.5-.38l-.89-3.44h-.14l-.17,4.58h-1.14l.21-5.07c0-.3.16-.45.46-.45h1.14c.26,0,.42.13.48.39l.71,2.78c.03.13.06.26.08.39s.04.26.07.4h.1c.03-.13.05-.27.08-.4.02-.13.05-.26.08-.4l.7-2.77c.05-.26.21-.39.48-.39,0,0,1.18,0,1.18,0Z" style="fill:#33b319;"/><path d="M60.91,15.24c-.27.02-.5.02-.69.02-.24,0-.44-.03-.58-.1-.14-.07-.24-.2-.3-.37-.03-.08-.05-.19-.07-.31h1.42c.45,0,.78-.09.96-.27.19-.18.28-.45.28-.81,0-.45-.16-.79-.44-1.01-.29-.23-.77-.34-1.44-.34-.48,0-.87.06-1.17.2-.3.13-.52.35-.66.65-.14.31-.21.72-.21,1.23,0,.48.07.87.21,1.17.13.31.35.53.66.68.31.14.71.22,1.21.22.19,0,.4,0,.6-.03.21-.02.41-.05.61-.09s.37-.1.52-.18l-.1-.73c-.27.04-.54.06-.81.07ZM59.33,13.3c.04-.16.13-.28.25-.33.12-.06.29-.09.51-.09.25,0,.42.03.53.11.1.07.15.2.15.38,0,.14,0,.25-.07.33-.05.08-.17.11-.34.11h-1.1c0-.21.03-.38.07-.51Z" style="fill:#33b319;"/><path d="M66.14,16.06v.04h.26v-.04h-.26ZM66.14,16.06v.04h.26v-.04h-.26ZM62.32,16.06v.04h.09s.02-.03.02-.04h-.11ZM66.14,16.06v.04h.26v-.04h-.26ZM62.32,16.1h.09s.02-.03.02-.04h-.11v.04Z" style="fill:#33b319;"/><path d="M66.4,15.29v-3.14h-2c-.34,0-.59.08-.77.24-.18.15-.28.39-.32.7-.04.34-.09.68-.16,1.01-.07.34-.16.67-.28,1.01-.02.06-.04.12-.07.18h-.48v.77h.11s0,.03-.02.04h-.09v1.12h.78l.09-1.12h2.95v-.04h.26v.04h-.26l.09,1.12h.78v-1.93s-.61,0-.61,0ZM63.84,15.29c.12-.26.22-.54.3-.85.09-.33.16-.7.21-1.13.03-.25.16-.38.4-.38h.53v2.36s-1.44,0-1.44,0Z" style="fill:#33b319;"/><path d="M71.27,14.39c-.16-.18-.42-.28-.79-.3v-.04c.31-.02.53-.11.66-.25.13-.15.2-.36.2-.64s-.05-.49-.17-.65c-.11-.15-.29-.25-.54-.31s-.59-.09-1.02-.09h-.75c-.21.01-.41.01-.59.02-.19,0-.38,0-.57.03v3.96l.63.03c.2,0,.43.01.67.01s.52.01.83.01c.39,0,.71-.03.96-.09.24-.06.42-.17.53-.32.12-.15.17-.36.17-.63,0-.32-.07-.57-.22-.74ZM69.55,12.89c.17,0,.31.02.41.04.1.02.17.07.21.12.05.06.07.15.07.26s-.02.2-.06.26c-.04.07-.1.11-.19.14-.09.02-.22.03-.38.03h-.8v-.85h.74ZM70.25,15.19c-.04.07-.11.12-.21.14-.1.03-.24.04-.4.04h-.83v-.97h.8c.26,0,.45.03.55.1.11.06.16.19.16.39,0,.12-.02.22-.07.3Z" style="fill:#33b319;"/><path d="M75.01,15.24c-.27.02-.5.02-.68.02-.25,0-.44-.03-.58-.1-.15-.07-.25-.2-.3-.37-.03-.08-.05-.19-.07-.31h1.41c.46,0,.78-.09.97-.27.18-.18.27-.45.27-.81-.01-.45-.15-.79-.44-1.01-.29-.23-.77-.34-1.44-.34-.48,0-.87.06-1.17.2-.3.13-.52.35-.65.65-.14.31-.21.72-.21,1.23,0,.48.06.87.2,1.17.14.31.36.53.67.68.3.14.7.22,1.2.22.2,0,.4,0,.61-.03.21-.02.41-.05.61-.09.19-.04.37-.1.52-.18l-.11-.73c-.27.04-.54.06-.81.07h0ZM73.43,13.3c.05-.16.13-.28.25-.33.12-.06.29-.09.51-.09.25,0,.43.03.53.11.11.07.16.2.16.38,0,.14-.02.25-.07.33-.06.08-.17.11-.35.11h-1.09c0-.21.02-.38.06-.51Z" style="fill:#33b319;"/><path d="M80.24,16.06v.04h.26v-.04h-.26ZM80.24,16.06v.04h.26v-.04h-.26ZM76.42,16.06v.04h.09s.02-.03.02-.04c0,0-.11,0-.11,0ZM80.24,16.06v.04h.26v-.04h-.26ZM76.42,16.1h.09s.02-.03.02-.04h-.11s0,.04,0,.04Z" style="fill:#33b319;"/><path d="M80.5,15.29v-3.14h-2c-.33,0-.59.08-.77.24-.17.15-.28.39-.32.7-.03.34-.09.68-.16,1.01-.07.34-.16.67-.28,1.01-.02.06-.04.12-.07.18h-.48v.77h.11s-.01.03-.02.04h-.09v1.12h.78l.09-1.12h2.95v-.04h.26v.04h-.26l.09,1.12h.78v-1.93s-.61,0-.61,0ZM77.94,15.29c.12-.26.22-.54.3-.85.09-.33.16-.7.21-1.13.03-.25.16-.38.4-.38h.53v2.36s-1.44,0-1.44,0Z" style="fill:#33b319;"/><path d="M85.68,12.15v3.95h-1.06v-2.06c0-.11,0-.21.01-.31,0-.1.02-.21.04-.33h-.03c-.03.1-.08.2-.14.31-.06.11-.12.2-.17.28l-1.5,2.11h-1.03v-3.95h1.06v2.41c0,.09-.02.19-.03.3h.02c.04-.1.09-.2.14-.28s.1-.17.16-.25l1.52-2.18h1.02s-.01,0-.01,0Z" style="fill:#33b319;"/><polygon points="91 15.29 91 17.22 90.22 17.22 90.12 16.1 86.69 16.1 86.69 12.15 87.85 12.15 87.85 15.29 89.24 15.29 89.24 12.15 90.41 12.15 90.41 15.29 91 15.29" style="fill:#33b319;"/><path d="M95.77,12.15v3.95h1.19v-3.95s-1.19,0-1.19,0Z" style="fill:#33b319;"/><path d="M95.08,14.05c-.11-.19-.3-.32-.56-.4s-.62-.12-1.07-.12h-.6v-1.38h-1.15v3.95h.04c.19.01.38.02.56.03.18,0,.37,0,.59.02h.76c.37,0,.67-.04.91-.12.23-.07.41-.21.52-.4.11-.19.17-.45.17-.79s-.06-.6-.17-.79ZM94,15.14c-.04.08-.1.14-.19.16-.08.03-.2.04-.36.04-.22,0-.42,0-.6-.01v-1.08h.6c.24,0,.4.04.48.12.08.07.12.21.12.43,0,.15-.02.26-.05.34Z" style="fill:#33b319;"/><path d="M24.02,21.73c.44,0,.79.04,1.05.12.26.08.46.21.58.4s.18.45.18.78c0,.26-.02.48-.07.68-.05.19-.13.35-.26.48-.12.12-.3.2-.53.24v.03c.38.06.64.2.78.43.14.23.22.55.22.95s-.05.7-.18.94c-.12.24-.32.42-.6.54-.28.11-.65.17-1.12.17-.32,0-.64-.01-.97-.04s-.64-.07-.94-.11l.05-.9c.21.02.4.03.57.04.17,0,.33.01.48.02s.31,0,.47,0c.26,0,.47-.02.62-.07.15-.05.26-.13.32-.25s.1-.29.1-.51c0-.17-.02-.31-.07-.43s-.13-.2-.25-.26-.3-.09-.54-.08h-1.05v-.8h1.05c.18,0,.31-.02.42-.06.1-.04.18-.09.23-.16s.08-.15.1-.24.02-.19.02-.3c0-.18-.03-.31-.08-.4s-.14-.15-.26-.18c-.13-.03-.3-.05-.52-.05-.28,0-.54,0-.8.01s-.49.01-.68.02l-.06-.86c.3-.05.59-.09.88-.12.29-.02.58-.04.87-.04h0Z" style="fill:#33b319;"/><path d="M28.9,21.73c.53,0,.95.09,1.26.28s.54.49.67.91c.14.42.2.98.2,1.68s-.07,1.27-.2,1.68c-.14.42-.36.72-.67.91s-.73.28-1.26.28-.95-.09-1.26-.28-.53-.49-.67-.91c-.13-.42-.2-.98-.2-1.68s.07-1.27.2-1.68c.13-.42.36-.72.67-.91s.73-.28,1.26-.28ZM28.9,22.69c-.18,0-.32.03-.44.09s-.21.16-.28.3-.12.33-.15.58-.04.56-.04.95.01.69.04.94.08.45.15.58.16.24.28.3.26.09.44.09.33-.03.45-.09.22-.16.29-.3c.07-.14.12-.33.15-.58s.04-.57.04-.94-.02-.7-.04-.95-.08-.44-.15-.58-.17-.24-.29-.3-.27-.09-.45-.09Z" style="fill:#33b319;"/><path d="M33.95,21.73c.53,0,.95.09,1.26.28.31.19.54.49.67.91.14.42.2.98.2,1.68s-.07,1.27-.2,1.68c-.14.42-.36.72-.67.91s-.73.28-1.26.28-.95-.09-1.26-.28-.53-.49-.67-.91c-.13-.42-.2-.98-.2-1.68s.07-1.27.2-1.68c.13-.42.36-.72.67-.91s.73-.28,1.26-.28ZM33.94,22.69c-.18,0-.32.03-.44.09s-.21.16-.28.3-.12.33-.15.58-.04.56-.04.95,0,.69.04.94.08.45.15.58.16.24.28.3.26.09.44.09.33-.03.45-.09.22-.16.29-.3.12-.33.15-.58.04-.57.04-.94-.02-.7-.04-.95-.08-.44-.15-.58-.17-.24-.29-.3c-.12-.06-.27-.09-.45-.09Z" style="fill:#33b319;"/><path d="M40.54,23.31c.14,0,.29,0,.47.02.17.01.35.04.52.07s.33.08.48.15l-.13.74c-.22,0-.42-.01-.62-.02s-.37,0-.52,0c-.24,0-.43.03-.57.1-.14.06-.24.18-.3.34-.06.16-.09.39-.09.68s.03.52.09.69.16.28.3.34.33.1.57.1h.33c.13,0,.28-.01.43-.02.15,0,.31-.02.46-.04l.11.75c-.21.1-.46.17-.73.21-.27.04-.54.06-.81.06-.49,0-.88-.07-1.17-.2-.29-.14-.5-.36-.63-.66s-.19-.71-.19-1.22.06-.91.19-1.22c.13-.3.34-.52.63-.66s.69-.2,1.18-.2h0Z" style="fill:#33b319;"/><path d="M48.01,26.15c.15,0,.26.03.32.09s.09.17.09.32v.38c0,.15-.03.26-.09.32s-.17.09-.32.09h-.3c-.16,0-.26-.03-.32-.09s-.09-.17-.09-.32v-.38c0-.15.03-.26.09-.32s.17-.09.32-.09h.3Z" style="fill:#33b319;"/><polygon points="63.7 23.41 63.7 24.32 62.39 24.32 62.39 27.36 61.2 27.36 61.2 24.32 59.88 24.32 59.88 23.41 63.7 23.41" style="fill:#33b319;"/><path d="M58.51,26.5c-.27.02-.5.02-.68.02-.25,0-.44-.03-.59-.1-.14-.07-.24-.19-.29-.37-.03-.09-.05-.19-.07-.31h1.41c.46,0,.78-.09.97-.27.18-.18.27-.45.27-.81,0-.45-.15-.78-.44-1.01-.29-.23-.77-.34-1.44-.34-.48,0-.87.07-1.17.2-.3.13-.52.35-.65.65-.14.31-.21.72-.21,1.24,0,.47.06.86.2,1.16.14.31.36.53.67.68.3.15.7.22,1.2.22.2,0,.4-.01.61-.03.2-.02.41-.05.61-.09.19-.04.37-.1.51-.18l-.1-.72c-.27.03-.54.05-.81.06ZM56.93,24.56c.05-.16.13-.27.25-.33s.29-.09.51-.09c.25,0,.43.04.53.11.11.07.16.2.16.39,0,.14-.02.24-.08.32-.05.08-.16.12-.34.12h-1.09c0-.22.02-.39.06-.52Z" style="fill:#33b319;"/><path d="M54.79,23.41v3.95h-1.17v-3.13h-.53c-.14,0-.23.03-.3.09-.06.06-.1.16-.12.29-.02.22-.05.44-.08.66-.03.22-.06.43-.09.63-.04.21-.07.38-.12.52-.05.28-.16.5-.32.65s-.35.26-.57.31-.46.06-.72.02l-.12-.87c.12-.02.23-.05.32-.08.09-.02.16-.06.22-.12.05-.05.1-.13.13-.23.03-.09.06-.2.09-.32.03-.13.05-.27.07-.42.02-.14.04-.3.06-.47,0-.16.03-.33.04-.49.04-.33.14-.57.3-.74.17-.16.42-.25.76-.25,0,0,2.15,0,2.15,0Z" style="fill:#33b319;"/><path d="M46.35,25.65c-.15-.18-.42-.28-.79-.3v-.03c.31-.03.53-.12.66-.26.14-.14.21-.36.21-.64s-.06-.49-.17-.64c-.11-.16-.3-.26-.55-.32s-.59-.09-1.02-.09c-.28,0-.53,0-.74.01-.22,0-.42,0-.6.01-.18,0-.37.01-.56.03v3.96c.21.01.42.02.62.03h.67c.24.01.52.01.83.01.4,0,.72-.03.96-.09s.42-.16.54-.32c.11-.15.17-.36.17-.63,0-.32-.08-.56-.23-.74h0ZM44.63,24.16c.18,0,.32,0,.42.03.09.03.16.07.21.13.04.06.06.14.06.25s-.02.2-.06.27c-.03.06-.1.1-.19.13-.09.02-.21.03-.37.03h-.8v-.85h.02c.21,0,.45,0,.71.01ZM45.34,26.45c-.05.07-.12.12-.22.15-.1.02-.23.04-.4.04-.3,0-.57,0-.82-.01v-.97h.8c.26,0,.44.03.55.1.1.07.15.2.15.39,0,.13-.02.23-.06.3Z" style="fill:#33b319;"/><path d="M12.02,18.24v-8.83c0-.18.14-.32.32-.32h4.85c.29,0,.44-.35.23-.56L8.99.1c-.07-.06-.15-.1-.23-.1-.09,0-.17.04-.23.1L.1,8.53c-.21.21-.06.56.23.56h4.84c.18,0,.33.14.33.32v21.26c0,.18.14.33.32.33h5.87c.18,0,.33-.15.33-.33v-11.43h4.36v9.43l2.31,2.32h48.48l2.32-2.32v-9.43h27.47v-1s-84.94,0-84.94,0ZM68.49,28.26l-1.73,1.73H19.11l-1.73-1.73v-9.02h51.11s0,9.02,0,9.02Z" style="fill:#33b319;"/></svg>