<?xml version="1.0" encoding="UTF-8"?><svg id="a" xmlns="http://www.w3.org/2000/svg" viewBox="0 0 100 47.06"><path d="M41.88,0h-16.76c-.88,0-1.59.63-1.59,1.42v44.22c0,.78.71,1.42,1.59,1.42h12.5c.88,0,1.59-.63,1.59-1.42h0v-23.9l17,24.64c.29.42.8.68,1.36.68h17.31c.88,0,1.59-.63,1.59-1.42h0V1.42C76.47.63,75.76,0,74.88,0h0s-12.88,0-12.88,0c-.88,0-1.59.63-1.59,1.42v24.15L43.24.68C42.95.26,42.43,0,41.88,0Z" style="fill:#7f7f7f;"/><path d="M1.12,5.19C-.21,4.15-.38,2.29.74,1.05,1.34.38,2.22,0,3.16,0h15.56c.7,0,1.26.53,1.26,1.18v18.8L1.12,5.19Z" style="fill:#7f7f7f;"/><path d="M98.88,41.86c1.33,1.05,1.51,2.9.38,4.15-.6.66-1.48,1.05-2.42,1.05h-15.56c-.7,0-1.26-.53-1.26-1.18v-18.8l18.86,14.78Z" style="fill:#7f7f7f;"/></svg>