<?xml version="1.0" encoding="UTF-8"?><svg xmlns="http://www.w3.org/2000/svg" viewBox="0 0 74.5 59.33"><g id="a"><path d="M21.37,43.1v-3.09c0-.34-.09-.51-.26-.51h-11.09l1.6-5.98h13.01c2.17,0,3.25,1.29,3.25,3.87v7.47c0,2.58-1.08,3.87-3.25,3.87h-7.73c-.18,0-.26.17-.26.51v3.62h11.35l-1.6,5.98H10.12v-11.34c0-2.58,1.08-3.87,3.25-3.87h7.73c.18,0,.26-.18.26-.53Z" style="fill:#fff; stroke:#1f7ead; stroke-miterlimit:10;"/><path d="M40,43.1v-3.09c0-.34-.09-.51-.26-.51h-11.09l1.6-5.98h13.01c2.17,0,3.25,1.29,3.25,3.87v7.47c0,2.58-1.08,3.87-3.25,3.87h-7.73c-.18,0-.26.17-.26.51v3.62h11.36l-1.6,5.98h-16.26v-11.34c0-2.58,1.08-3.87,3.25-3.87h7.73c.18,0,.26-.18.26-.53Z" style="fill:#fff; stroke:#1f7ead; stroke-miterlimit:10;"/><path d="M65.14,54.97c0,2.58-1.08,3.87-3.25,3.87h-11.25c-2.17,0-3.25-1.29-3.25-3.87v-17.58c0-2.58,1.08-3.87,3.25-3.87h11.25c2.17,0,3.25,1.29,3.25,3.87v17.58ZM53.89,52.33c0,.35.09.53.28.53h4.2c.18,0,.26-.18.26-.53v-12.3c0-.35-.09-.53-.26-.53h-4.2c-.19,0-.28.18-.28.53v12.3Z" style="fill:#fff; stroke:#1f7ead; stroke-miterlimit:10;"/></g><g id="b"><path d="M7.37,30.91h2.38s14.93,0,14.93,0c1.19,0,2.41.31,3.42,1.03l.28-1.03h7.99v-2.46c0-5.16-2.17-7.73-6.5-7.73h-15.47c-.35,0-.53-.35-.53-1.05v-6.19c0-.68.18-1.02.53-1.02h18.98l3.2-11.95H7.37C3.03.5.86,3.08.86,8.23v14.94c0,5.16,2.17,7.73,6.5,7.73Z" style="fill:#209fdf; stroke:#1f7ead; stroke-miterlimit:10;"/><path d="M67.13,20.71h-15.47c-.35,0-.53-.35-.53-1.05v-6.19c0-.68.18-1.02.53-1.02h18.98l3.2-11.95h-29.21c-4.34,0-6.5,2.58-6.5,7.73v14.94c0,5.16,2.17,7.73,6.5,7.73h6.01s.03,0,.05,0h11.25c2.78,0,5.75,1.67,5.75,6.37v13.83c3.96-.22,5.95-2.8,5.95-7.75v-14.91c0-5.16-2.17-7.73-6.5-7.73Z" style="fill:#209fdf; stroke:#1f7ead; stroke-miterlimit:10;"/><path d="M7.67,47.39c0-2.84,1.09-4.57,2.56-5.5h-3.42l.73-2.72h-3.69l-3.2,11.95h7.02v-3.74Z" style="fill:#209fdf; stroke:#1f7ead; stroke-miterlimit:10;"/></g></svg>