<?xml version="1.0" encoding="UTF-8"?><svg id="a" xmlns="http://www.w3.org/2000/svg" viewBox="0 0 85.74 97.4"><polygon points="51.3 38.67 51.3 46.58 34 46.58 34 38.67 40.68 37.69 40.68 33.03 44.59 33.03 44.59 37.69 44.65 37.69 51.3 38.67" style="fill:#7f7f7f; stroke:#7f7f7f; stroke-miterlimit:10;"/><rect x="40.45" y="30.79" width="4.39" height="1.49" style="fill:#7f7f7f;"/><path d="M39.69,28.53c.15-.21.34-.38.53-.54.89-.75,1.34-1.56,1.54-2.74.06-.34.09-.76.27-1.05.26-.42.7-.18.91.2.27.47.35,1.03.53,1.54.34,1.04.94,1.99,1.72,2.73.24.23.48.48.63.78.35.7.07,1.22-.73.97-1.58-.54-3.52,0-5.23-.04-.81-.05-.5-1.36-.18-1.82v-.02Z" style="fill:#7f7f7f;"/><path d="M50.21,47.65c-.12.86-1.7,1.85-2.48,2.15-.03.45-.12,1.36-.16,1.83,0,.03-2.36,45.76-2.36,45.76h-5.11s-2.36-45.73-2.36-45.76c-.04-.47-.13-1.38-.16-1.83-.78-.3-2.36-1.29-2.48-2.15,0,0,3.83-.01,7.53-.03h.04c3.7.01,7.54.03,7.54.03Z" style="fill:#7f7f7f;"/><path d="M48.08,23.86c-.31,0-.87,1.28-1.16,1.62-3.13,5.12.6-5.82-3.81-9.51-.12.04-.1.34-.1.49.09,2.75-.11,5.52-1.62,7.91-1.6,2.37-.37-2.43-1.52-1.88-2.19,1.99-3.04,4.02-2.3,7,.07.28.03.36-.19.09-3.21-3.97-1.53,2.05.59,4.36.24.5-.44.25-.66.11-2.62-1.46-4.87-3.86-5.49-6.86-1.7-4.6,4.63-9.25,2.63-13.11-.07-.14-.25-.45-.13-.51,1.15.19,1.67,1.53,2.27,2.49.47.72.89,1.42.98,2.28.04.42.45.95.81.48.33-.46.15-1.62-.08-2.5-1.19-3.33-2.06-7.06-1.03-10.55,1.05-2.48,3.24-4.75,5.8-5.73.27-.1.83-.08.6.34-.15.26-.43.47-.64.69-2.44,2.53-1.51,7.59,1.35,9.58.19.09.34.04.38-.13.09-.69-.51-1.35-.57-2.05-.25-1.49.55-2.71,1.65-3.66.19-.17.54-.38.63-.03.16,1.22-.89,2.4-.51,3.62.46,1.21,1.47,2.11,2.28,3.11.67.76,1.35,1.51,2,2.28,2.31,2.6,3.86,5.47,3.92,9.08.45,4.61-2.26,8.7-6.1,10.85-.1.08-.5.29-.36.04,2.06-2.79,2.09-6.36.73-9.45-.07-.16-.2-.45-.35-.46h0Z" style="fill:#7f7f7f;"/><path d="M51.93,36.47c.27-.13,1.34.03,1.83.09,10.18,1.5,20.72,2.95,30.87,4.68.5.1.78.18.77.25,0,.07-.38.13-.98.17-5.12.28-10.47.63-15.45-.5-4.6-1.01-9.18-2.37-13.72-3.58-.85-.22-1.85-.45-2.67-.73-.48-.16-.73-.3-.65-.37h0Z" style="fill:#7f7f7f;"/><path d="M53.99,30.26c-.05-.06.32-.19,1.08-.41.87-.25,1.72-.47,2.89-.78,2.87-.75,5.86-1.58,8.73-2.29,2-.52,3.95-.57,6.06-.66,1.66-.07,3.37-.15,5.06-.22,1.85-.08,4.14-.19,5.79-.25,1.01-.03,1.6-.03,1.66.04.06.05-.2.14-.69.27-.7.18-1.69.4-2.5.59-3.43.81-6.56,1.66-10.17,2.06-4.23.52-8.68.92-12.9,1.31-1.3.12-2.53.23-3.45.31-.92.08-1.51.11-1.56.05h0Z" style="fill:#7f7f7f;"/><path d="M53.66,32.42c9.79-1.6,21.12-2.51,30.99-1.56.28.03,1.06.11,1.1.22,0,.1-.69.15-.92.16-1.09.05-2.21.04-3.25.22-2.07.3-4.49.88-6.59,1.29-6.4.77-13.82.22-20.28-.18-.27-.02-1.06-.08-1.04-.15h0Z" style="fill:#7f7f7f;"/><path d="M52.86,34.61c.17-.1.49-.11,1.02-.14.5-.02,1.15-.02,1.7-.01,9.42.17,20.42.3,29.22,1.61.49.08.76.16.74.22-.02.07-.41.12-1.08.17-.87.06-2.17.13-3.19.21-2.43.19-4.87.45-7.31.5-3.96.1-7.84-.56-11.77-1.05-2.19-.29-4.37-.63-6.55-.9-.43-.07-2.93-.34-2.77-.6h0Z" style="fill:#7f7f7f;"/><path d="M33.81,36.47c-.27-.13-1.34.03-1.83.09-10.18,1.5-20.72,2.95-30.87,4.68-.5.1-.78.18-.77.25,0,.07.38.13.98.17,5.12.28,10.47.63,15.45-.5,4.6-1.01,9.18-2.37,13.72-3.58.85-.22,1.85-.45,2.67-.73.48-.16.73-.3.65-.37h0Z" style="fill:#7f7f7f;"/><path d="M31.75,30.26c.05-.06-.32-.19-1.08-.41-.87-.25-1.72-.47-2.89-.78-2.87-.75-5.86-1.58-8.73-2.29-2-.52-3.95-.57-6.06-.66-1.66-.07-3.37-.15-5.06-.22-1.85-.08-4.14-.19-5.79-.25-1.01-.03-1.6-.03-1.66.04-.06.05.2.14.69.27.7.18,1.69.4,2.5.59,3.43.81,6.56,1.66,10.17,2.06,4.23.52,8.68.92,12.9,1.31,1.3.12,2.53.23,3.45.31.92.08,1.51.11,1.56.05h0Z" style="fill:#7f7f7f;"/><path d="M32.08,32.42c-9.79-1.6-21.12-2.51-30.99-1.56-.28.03-1.06.11-1.1.22,0,.1.69.15.92.16,1.09.05,2.21.04,3.25.22,2.07.3,4.49.88,6.59,1.29,6.4.77,13.82.22,20.28-.18.27-.02,1.06-.08,1.04-.15h0Z" style="fill:#7f7f7f;"/><path d="M32.88,34.61c-.17-.1-.49-.11-1.02-.14-.5-.02-1.15-.02-1.7-.01-9.42.17-20.42.3-29.22,1.61-.49.08-.76.16-.74.22.02.07.41.12,1.08.17.87.06,2.17.13,3.19.21,2.43.19,4.87.45,7.31.5,3.96.1,7.84-.56,11.77-1.05,2.19-.29,4.37-.63,6.55-.9.43-.07,2.93-.34,2.77-.6h0Z" style="fill:#7f7f7f;"/></svg>